<?xml version="1.0" encoding="utf-8"?>
<!-- Generator: Adobe Illustrator 25.2.3, SVG Export Plug-In . SVG Version: 6.00 Build 0)  -->
<svg version="1.1" id="Layer_1" xmlns="http://www.w3.org/2000/svg" xmlns:xlink="http://www.w3.org/1999/xlink" x="0px" y="0px"
	 viewBox="0 0 1500 1500" style="enable-background:new 0 0 1500 1500;" xml:space="preserve">
<style type="text/css">
	.st0{fill:url(#SVGID_1_);}
	.st1{fill:url(#SVGID_2_);}
	.st2{fill:url(#SVGID_3_);}
	.st3{fill:url(#SVGID_4_);}
	.st4{fill:#FFFFFF;}
	.st5{fill:url(#SVGID_5_);}
	.st6{fill:url(#SVGID_6_);}
	.st7{fill:url(#SVGID_7_);}
	.st8{fill:url(#SVGID_8_);}
	.st9{fill:url(#SVGID_9_);}
	.st10{fill:url(#SVGID_10_);}
	.st11{fill:url(#SVGID_11_);}
	.st12{fill:url(#SVGID_12_);}
	.st13{fill:url(#SVGID_13_);}
	.st14{fill:url(#SVGID_14_);}
	.st15{fill:url(#SVGID_15_);}
	.st16{fill:url(#SVGID_16_);}
	.st17{fill:url(#SVGID_17_);}
</style>
<g>
	<linearGradient id="SVGID_1_" gradientUnits="userSpaceOnUse" x1="1264.2736" y1="219.6358" x2="457.8705" y2="1616.09">
		<stop  offset="0.173" style="stop-color:#00FFFF"/>
		<stop  offset="0.9056" style="stop-color:#0000FF"/>
	</linearGradient>
	<path class="st0" d="M1007,347.06c-1.47-0.73-2.57-1.47-4.04-2.2c-67.19-37.08-149.43-36.35-216.25,2.2L750,368.35l330.06,190.55
		c-3.3,102.07-28.64,200.46-73.06,289.68V601.86L750,453.53v460.4h219.92c-55.44,87.01-130.34,161.54-219.92,217.35v169.99
		l477.29-275.72V474.46L1007,347.06z M841.79,815.53h-73.43v-73.43h73.43V815.53z M841.79,705.39h-73.43v-73.43h73.43V705.39z"/>
	<linearGradient id="SVGID_2_" gradientUnits="userSpaceOnUse" x1="1225.0972" y1="70.9045" x2="-53.3467" y2="1534.231">
		<stop  offset="0" style="stop-color:#00FFFF"/>
		<stop  offset="1" style="stop-color:#0000FF"/>
	</linearGradient>
	<path class="st1" d="M750,198.73L272.71,474.46v551.08L750,1301.27v-169.99c-89.95-55.81-164.85-130.34-219.92-217.35H750v-460.4
		L493,601.86v247.09c-44.43-89.22-69.76-187.98-73.06-290.04L750,368.35l36.71-21.29c66.82-38.55,149.06-39.28,216.25-2.2
		L750,198.73z M658.21,631.96h73.43v73.43h-73.43V631.96z M658.21,742.11h73.43v73.43h-73.43V742.11z"/>
</g>
</svg>
