<?xml version="1.0" encoding="utf-8"?>
<!-- Generator: Adobe Illustrator 25.2.3, SVG Export Plug-In . SVG Version: 6.00 Build 0)  -->
<svg version="1.1" id="Layer_1" xmlns="http://www.w3.org/2000/svg" xmlns:xlink="http://www.w3.org/1999/xlink" x="0px" y="0px"
	 viewBox="0 0 1500 259.14" style="enable-background:new 0 0 1500 259.14;" xml:space="preserve">
<style type="text/css">
	.st0{fill:url(#SVGID_1_);}
	.st1{fill:url(#SVGID_2_);}
	.st2{fill:url(#SVGID_3_);}
	.st3{fill:url(#SVGID_4_);}
	.st4{fill:#FFFFFF;}
	.st5{fill:url(#SVGID_5_);}
	.st6{fill:url(#SVGID_6_);}
	.st7{fill:url(#SVGID_7_);}
	.st8{fill:url(#SVGID_8_);}
	.st9{fill:url(#SVGID_9_);}
	.st10{fill:url(#SVGID_10_);}
	.st11{fill:url(#SVGID_11_);}
	.st12{fill:url(#SVGID_12_);}
	.st13{fill:url(#SVGID_13_);}
	.st14{fill:url(#SVGID_14_);}
	.st15{fill:url(#SVGID_15_);}
	.st16{fill:url(#SVGID_16_);}
	.st17{fill:url(#SVGID_17_);}
</style>
<g>
	<g>
		<linearGradient id="SVGID_1_" gradientUnits="userSpaceOnUse" x1="337.2361" y1="19.696" x2="170.1738" y2="308.999">
			<stop  offset="0.173" style="stop-color:#00FFFF"/>
			<stop  offset="0.9056" style="stop-color:#0000FF"/>
		</linearGradient>
		<path class="st0" d="M283.94,46.09c-0.3-0.15-0.53-0.3-0.84-0.46c-13.92-7.68-30.96-7.53-44.8,0.46l-7.61,4.41l68.38,39.48
			c-0.68,21.15-5.93,41.53-15.14,60.01V98.88l-53.24-30.73v95.38h45.56c-11.49,18.03-27,33.47-45.56,45.03v35.22l98.88-57.12V72.49
			L283.94,46.09z M249.71,143.15H234.5v-15.21h15.21V143.15z M249.71,120.33H234.5v-15.21h15.21V120.33z"/>
		<linearGradient id="SVGID_2_" gradientUnits="userSpaceOnUse" x1="329.1199" y1="-11.1166" x2="64.2651" y2="292.0403">
			<stop  offset="0" style="stop-color:#00FFFF"/>
			<stop  offset="1" style="stop-color:#0000FF"/>
		</linearGradient>
		<path class="st1" d="M230.69,15.37l-98.88,57.12v114.17l98.88,57.12v-35.22c-18.64-11.56-34.15-27-45.56-45.03h45.56V68.15
			l-53.24,30.73v51.19c-9.2-18.48-14.45-38.94-15.14-60.09l68.38-39.48l7.61-4.41c13.84-7.99,30.88-8.14,44.8-0.46L230.69,15.37z
			 M211.68,105.12h15.21v15.21h-15.21V105.12z M211.68,127.94h15.21v15.21h-15.21V127.94z"/>
	</g>
	<g>
		<g>
			<path d="M476.45,145.82c7.68-1.75,14.3-4.79,19.85-8.9c5.93-4.41,10.57-10.12,13.77-16.81c3.19-6.77,4.79-14.45,4.79-22.97
				c0-10.19-2.28-19.09-6.69-26.39c-4.49-7.3-10.88-12.93-19.09-16.89c-8.21-3.8-17.95-5.78-28.98-5.78h-51.72v165.05h27.76v-64.12
				h10.19l48.83,64.12h35.29L476.45,145.82z M452.49,125.36h-16.35V70.75h16.35c10.65,0,18.94,2.43,24.8,7.23
				c5.78,4.72,8.67,11.41,8.67,19.93c0,5.7-1.29,10.65-3.96,14.76c-2.59,4.03-6.47,7.23-11.41,9.43
				C465.65,124.29,459.56,125.36,452.49,125.36z"/>
			<path d="M622.94,131.98c-4.49-7.83-10.88-14.15-18.94-18.56c-8.06-4.41-17.57-6.62-28.22-6.62c-7.76,0-15.14,1.45-21.91,4.26
				c-6.77,2.81-12.7,6.77-17.8,11.71c-5.1,5.02-9.13,10.95-11.94,17.49c-2.89,6.62-4.34,13.84-4.34,21.45
				c0,10.34,2.51,19.7,7.61,27.91c5.02,8.21,11.94,14.76,20.61,19.55c8.59,4.72,18.56,7.07,29.44,7.07
				c10.65,0,20.38-2.28,28.98-6.85c8.67-4.56,15.52-11.03,20.46-19.17l0.46-0.91l-19.47-10.04l-0.46,0.68
				c-3.8,4.94-8.06,8.67-12.7,11.03c-4.64,2.43-9.96,3.57-15.97,3.57c-6.24,0-11.87-1.22-16.66-3.73
				c-4.79-2.51-8.6-6.08-11.26-10.57c-2.51-4.18-3.88-9.13-4.03-14.68h82.3l0.15-0.84c0.23-1.37,0.3-2.28,0.38-2.89
				c0.08-0.53,0.15-1.29,0.15-2.21C629.79,149.17,627.5,139.89,622.94,131.98z M548.02,148.25c0.76-4.03,2.28-7.61,4.49-10.57
				c2.51-3.19,5.7-5.7,9.66-7.53c3.95-1.75,8.52-2.66,13.54-2.66c4.79,0,9.2,0.91,13.08,2.74c3.8,1.83,7.07,4.34,9.58,7.61
				c2.36,2.89,3.95,6.39,4.87,10.42H548.02z"/>
			<path d="M721.87,111.92c-5.95-3.4-12.98-5.12-20.89-5.12c-7.62,0-14.5,1.48-20.44,4.4c-5.04,2.48-9.28,5.59-12.62,9.28v-10.51
				H641.4v103.15h26.52v-63.05c0-4.03,0.95-7.75,2.84-11.05c1.89-3.3,4.63-5.97,8.14-7.95c3.54-1.99,7.8-2.99,12.69-2.99
				c7.07,0,12.67,2.21,16.65,6.57c4,4.38,6.03,10.74,6.03,18.89v59.59h26.52V148.4c0-8.41-1.67-15.82-4.95-22
				C732.54,120.19,727.84,115.32,721.87,111.92z"/>
			<path d="M805.23,189.46c-2.64,1.97-5.61,2.97-8.82,2.97c-3.02,0-5.26-1.03-6.86-3.13c-1.65-2.16-2.48-5.38-2.48-9.56v-49.18
				h23.34v-20.59h-23.34V72.1h-26.52v37.87h-12.36v20.59h12.36v50.86c0,10.92,2.66,19.55,7.89,25.64
				c5.27,6.12,12.72,9.23,22.13,9.23c3.76,0,7.63-0.49,11.51-1.46c3.9-0.97,7.41-2.35,10.43-4.1l0.66-0.38l-6.87-21.69
				L805.23,189.46z"/>
			<rect x="823.34" y="109.97" width="26.52" height="103.15"/>
			<path d="M950.87,111.92c-5.95-3.4-12.98-5.12-20.89-5.12c-7.62,0-14.5,1.48-20.44,4.4c-5.04,2.48-9.28,5.59-12.62,9.28v-10.51
				H870.4v103.15h26.52v-63.05c0-4.03,0.95-7.75,2.84-11.05c1.89-3.3,4.63-5.97,8.14-7.95c3.54-1.99,7.8-2.99,12.69-2.99
				c7.07,0,12.67,2.21,16.65,6.57c4,4.38,6.03,10.74,6.03,18.89v59.59h26.52V148.4c0-8.41-1.67-15.82-4.95-22
				C961.54,120.19,956.84,115.32,950.87,111.92z"/>
			<path d="M1083.03,131.98c-4.49-7.83-10.88-14.15-18.94-18.56c-8.06-4.41-17.57-6.62-28.22-6.62c-7.76,0-15.14,1.45-21.91,4.26
				c-6.77,2.81-12.7,6.77-17.8,11.71c-5.1,5.02-9.13,10.95-11.94,17.49c-2.89,6.62-4.34,13.84-4.34,21.45
				c0,10.34,2.51,19.7,7.61,27.91c5.02,8.21,11.94,14.76,20.61,19.55c8.6,4.72,18.56,7.07,29.44,7.07c10.65,0,20.38-2.28,28.98-6.85
				c8.67-4.56,15.52-11.03,20.38-19.17l0.53-0.91l-19.47-10.04l-0.53,0.68c-3.73,4.94-8.06,8.67-12.63,11.03
				c-4.64,2.43-10.04,3.57-15.97,3.57c-6.24,0-11.87-1.22-16.73-3.73c-4.79-2.51-8.52-6.08-11.18-10.57
				c-2.51-4.18-3.88-9.13-4.03-14.68h82.3l0.15-0.84c0.15-1.37,0.3-2.28,0.38-2.89c0.08-0.53,0.08-1.29,0.08-2.21
				C1089.8,149.17,1087.52,139.89,1083.03,131.98z M1008.11,148.25c0.76-4.03,2.28-7.61,4.49-10.57c2.51-3.19,5.7-5.7,9.66-7.53
				c3.96-1.75,8.52-2.66,13.54-2.66c4.79,0,9.13,0.91,13.01,2.74c3.88,1.83,7.15,4.34,9.66,7.61c2.36,2.89,3.95,6.39,4.87,10.42
				H1008.11z"/>
			<rect x="1101.48" y="41.15" width="26.52" height="171.97"/>
			<path d="M1178.37,184.12c-2.58-1.57-5.5-2.36-8.7-2.36c-3.19,0-6.14,0.79-8.74,2.36c-2.58,1.55-4.69,3.64-6.26,6.21
				c-1.57,2.58-2.37,5.51-2.37,8.7c0,3.13,0.79,6.04,2.37,8.65c1.56,2.6,3.67,4.71,6.26,6.25c2.6,1.57,5.54,2.37,8.74,2.37
				c3.2,0,6.13-0.79,8.7-2.37c2.56-1.56,4.64-3.66,6.16-6.26c1.53-2.6,2.31-5.5,2.31-8.64c0-3.2-0.78-6.12-2.31-8.69
				C1183,187.76,1180.92,185.67,1178.37,184.12z"/>
			<path d="M1232.6,61.51c-4.64-2.84-11.02-2.91-15.91-0.01c-2.41,1.43-4.35,3.36-5.76,5.72c-1.44,2.38-2.17,5.04-2.17,7.91
				c0,2.93,0.73,5.64,2.16,8.05c1.42,2.4,3.36,4.34,5.77,5.77c2.41,1.43,5.09,2.16,7.95,2.16c2.93,0,5.62-0.73,7.96-2.17
				c2.33-1.42,4.24-3.36,5.66-5.76c1.43-2.41,2.16-5.12,2.16-8.05c0-2.86-0.73-5.53-2.17-7.91
				C1236.84,64.85,1234.94,62.93,1232.6,61.51z"/>
			<rect x="1211.33" y="109.97" width="26.52" height="103.15"/>
			<path d="M1360.35,133.04c-5.17-8.21-12.32-14.68-21.22-19.32c-8.9-4.56-19.02-6.92-30.04-6.92c-11.1,0-21.22,2.36-30.12,6.92
				c-8.82,4.64-15.97,11.11-21.22,19.24c-5.17,8.21-7.83,17.8-7.83,28.6c0,10.65,2.66,20.23,7.83,28.45
				c5.25,8.21,12.4,14.76,21.3,19.32c8.9,4.64,19.02,6.92,30.04,6.92c11.03,0,21.15-2.28,30.04-6.92
				c8.9-4.56,16.05-11.11,21.22-19.32c5.17-8.21,7.83-17.8,7.83-28.45C1368.18,150.76,1365.52,141.18,1360.35,133.04z
				 M1336.54,177.92c-2.74,4.72-6.54,8.52-11.26,11.26c-4.71,2.66-10.19,4.03-16.2,4.03c-5.93,0-11.41-1.37-16.13-4.03
				c-4.79-2.74-8.59-6.54-11.33-11.26c-2.74-4.72-4.11-10.27-4.11-16.35c0-6.24,1.37-11.79,4.11-16.51
				c2.74-4.72,6.54-8.52,11.33-11.18c4.72-2.66,10.19-4.03,16.13-4.03c6.01,0,11.49,1.37,16.2,4.03c4.72,2.66,8.52,6.46,11.26,11.18
				c2.74,4.72,4.11,10.27,4.11,16.51C1340.65,167.65,1339.28,173.2,1336.54,177.92z"/>
		</g>
		<g>
			<circle cx="836.6" cy="65" r="15.98"/>
			<path d="M836.6,33.05C813.11,33.05,794,47.38,794,65s19.11,31.95,42.6,31.95c23.49,0,42.6-14.33,42.6-31.95
				S860.09,33.05,836.6,33.05z M836.6,86.3c-17.32,0-31.95-9.75-31.95-21.3s14.63-21.3,31.95-21.3c17.32,0,31.95,9.75,31.95,21.3
				S853.92,86.3,836.6,86.3z"/>
		</g>
	</g>
</g>
</svg>
